<svg width="51" height="25" viewBox="0 0 51 25" fill="none" xmlns="http://www.w3.org/2000/svg">
<path d="M12.1338 6.54688C13.2731 6.61198 14.209 7.05143 14.9414 7.86523C15.6738 8.66276 16.2028 9.57422 16.5283 10.5996C16.8538 11.625 17.0166 12.6748 17.0166 13.749C17.0166 14.8232 16.8538 15.873 16.5283 16.8984C16.2191 17.9238 15.6901 18.8434 14.9414 19.6572C14.209 20.4548 13.2731 20.8861 12.1338 20.9512H3.14941C2.70996 20.9349 2.33561 20.7803 2.02637 20.4873C1.7334 20.1781 1.57878 19.8037 1.5625 19.3643V13.3096C1.57878 12.8538 1.74967 12.4795 2.0752 12.1865C2.40072 11.8773 2.79134 11.7227 3.24707 11.7227C3.68652 11.7389 4.06087 11.9017 4.37012 12.2109C4.67936 12.5039 4.84212 12.8701 4.8584 13.3096V17.0205C4.8584 17.46 5.08626 17.6797 5.54199 17.6797H11.3037C11.9222 17.6471 12.4349 17.4111 12.8418 16.9717C13.2487 16.5322 13.5417 16.0358 13.7207 15.4824C13.916 14.9128 14.0137 14.335 14.0137 13.749C14.0137 13.1631 13.916 12.5934 13.7207 12.04C13.5417 11.4704 13.2487 10.9658 12.8418 10.5264C12.4349 10.0869 11.9222 9.85091 11.3037 9.81836H3.14941C2.17285 9.73698 1.64388 9.20801 1.5625 8.23145C1.5625 7.77572 1.70898 7.38509 2.00195 7.05957C2.3112 6.73405 2.69368 6.56315 3.14941 6.54688H12.1338ZM30.2734 6.54688C31.4128 6.61198 32.3486 7.05143 33.0811 7.86523C33.8135 8.66276 34.3424 9.57422 34.668 10.5996C34.9935 11.625 35.1562 12.6748 35.1562 13.749C35.1562 14.8232 34.9935 15.873 34.668 16.8984C34.3587 17.9238 33.8298 18.8434 33.0811 19.6572C32.3486 20.4548 31.4128 20.8861 30.2734 20.9512H21.2891C20.8496 20.9349 20.4753 20.7803 20.166 20.4873C19.873 20.1781 19.7184 19.8037 19.7021 19.3643V13.3096C19.7184 12.8538 19.8893 12.4795 20.2148 12.1865C20.5404 11.8773 20.931 11.7227 21.3867 11.7227C21.8262 11.7389 22.2005 11.9017 22.5098 12.2109C22.819 12.5039 22.9818 12.8701 22.998 13.3096V17.0205C22.998 17.46 23.2259 17.6797 23.6816 17.6797H29.4434C30.0618 17.6471 30.5745 17.4111 30.9814 16.9717C31.3883 16.5322 31.6813 16.0358 31.8604 15.4824C32.0557 14.9128 32.1533 14.335 32.1533 13.749C32.1533 13.1631 32.0557 12.5934 31.8604 12.04C31.6813 11.4704 31.3883 10.9658 30.9814 10.5264C30.5745 10.0869 30.0618 9.85091 29.4434 9.81836H21.2891C20.3125 9.73698 19.7835 9.20801 19.7021 8.23145C19.7021 7.77572 19.8486 7.38509 20.1416 7.05957C20.4508 6.73405 20.8333 6.56315 21.2891 6.54688H30.2734Z" fill="#E7E7E7"/>
<path d="M37 13.1838C43.5 13.1838 43.5 9.43915 43.5 6C43.5 9.43915 43.5 13.1838 50 13.1838C43.5 13.1838 43.5 17.7777 43.5 21.1757C43.5 17.7777 43.5 13.1838 37 13.1838Z" fill="#E7E7E7" stroke="#E7E7E7" stroke-width="0.382135" stroke-linejoin="round"/>
</svg>
